<svg aria-hidden="true" style="position: absolute; width: 0; height: 0; overflow: hidden;" version="1.1" xmlns="http://www.w3.org/2000/svg" xmlns:xlink="http://www.w3.org/1999/xlink">
<defs>
<symbol id="icon-user" viewBox="0 0 24 24">
<path stroke-linejoin="miter" stroke-linecap="butt" stroke-miterlimit="4" stroke-width="1.3846" d="M18.357 6.977c0 3.124-2.972 5.823-6.86 5.823s-6.86-2.7-6.86-5.823c0-3.124 2.972-5.824 6.86-5.824s6.86 2.7 6.86 5.824z"></path>
<path stroke-linejoin="miter" stroke-linecap="butt" stroke-miterlimit="4" stroke-width="1.3846" d="M23.077 22.615h-22.154c0 0 2.517-9.557 11.077-9.557s11.077 9.557 11.077 9.557z"></path>
</symbol>
<symbol id="icon-search" viewBox="0 0 24 24">
<path d="M22.966 23.52l-9.173-8.805c-0.732 0.599-1.575 1.063-2.527 1.391s-1.909 0.492-2.871 0.492c-2.346 0-4.331-0.779-5.956-2.338s-2.438-3.464-2.438-5.716c0-2.252 0.812-4.158 2.435-5.719s3.608-2.342 5.953-2.344c2.346-0.002 4.332 0.778 5.959 2.34s2.441 3.468 2.441 5.719c0 0.977-0.18 1.922-0.54 2.836s-0.834 1.696-1.421 2.345l9.173 8.804-1.034 0.996zM8.396 15.19c1.943 0 3.584-0.642 4.922-1.926s2.007-2.86 2.007-4.726c0-1.866-0.669-3.441-2.007-4.725s-2.979-1.926-4.922-1.926c-1.943-0.001-3.585 0.641-4.924 1.926s-2.008 2.86-2.007 4.725c0.001 1.865 0.67 3.439 2.007 4.725s2.978 1.927 4.922 1.926z"></path>
</symbol>
<symbol id="icon-search_grey" viewBox="0 0 24 24">
<path fill="#747474" style="fill: var(--color1, #747474)" d="M22.966 23.52l-9.173-8.805c-0.732 0.599-1.575 1.063-2.527 1.391s-1.909 0.492-2.871 0.492c-2.346 0-4.331-0.779-5.956-2.338s-2.438-3.464-2.438-5.716c0-2.252 0.812-4.158 2.435-5.719s3.608-2.342 5.953-2.344c2.346-0.002 4.332 0.778 5.959 2.34s2.441 3.468 2.441 5.719c0 0.977-0.18 1.922-0.54 2.836s-0.834 1.696-1.421 2.345l9.173 8.804-1.034 0.996zM8.396 15.19c1.943 0 3.584-0.642 4.922-1.926s2.007-2.86 2.007-4.726c0-1.866-0.669-3.441-2.007-4.725s-2.979-1.926-4.922-1.926c-1.943-0.001-3.585 0.641-4.924 1.926s-2.008 2.86-2.007 4.725c0.001 1.865 0.67 3.439 2.007 4.725s2.978 1.927 4.922 1.926z"></path>
</symbol>
<symbol id="icon-menu" viewBox="0 0 22 24">
<path stroke-linejoin="miter" stroke-linecap="butt" stroke-miterlimit="4" stroke-width="1.3846" d="M0 0.923h22.154"></path>
<path stroke-linejoin="miter" stroke-linecap="butt" stroke-miterlimit="4" stroke-width="1.3846" d="M0 11.262h22.154"></path>
<path stroke-linejoin="miter" stroke-linecap="butt" stroke-miterlimit="4" stroke-width="1.3846" d="M0 23.077h22.154"></path>
</symbol>
<symbol id="icon-inst" viewBox="0 0 24 24">
<path stroke-linejoin="round" stroke-linecap="round" stroke-miterlimit="4" stroke-width="1.3846" d="M0.923 12c0-5.221 0-7.833 1.622-9.455s4.233-1.622 9.455-1.622c5.221 0 7.833 0 9.455 1.622s1.622 4.233 1.622 9.455c0 5.221 0 7.833-1.622 9.455s-4.232 1.622-9.455 1.622c-5.221 0-7.833 0-9.455-1.622s-1.622-4.232-1.622-9.455z"></path>
<path stroke-linejoin="round" stroke-linecap="round" stroke-miterlimit="4" stroke-width="1.3846" d="M18.422 5.587h-0.012M17.247 12c0 1.392-0.553 2.726-1.537 3.71s-2.319 1.537-3.71 1.537c-1.392 0-2.726-0.553-3.71-1.537s-1.537-2.319-1.537-3.71c0-1.392 0.553-2.726 1.537-3.71s2.319-1.537 3.71-1.537c1.392 0 2.726 0.553 3.71 1.537s1.537 2.319 1.537 3.71z"></path>
</symbol>
<symbol id="icon-close" viewBox="0 0 24 24">
<path stroke-linejoin="miter" stroke-linecap="butt" stroke-miterlimit="4" stroke-width="0.9231" d="M0.923 0.923l22.154 22.154"></path>
<path stroke-linejoin="miter" stroke-linecap="butt" stroke-miterlimit="4" stroke-width="0.9231" d="M23.077 0.923l-22.154 22.154"></path>
</symbol>
<symbol id="icon-basket" viewBox="0 0 24 24">
<path d="M1.125 9.363h21.75v-1.626h-21.75v1.626zM22.4 8.88v0.714h1.6v-0.714h-1.6zM19.818 22.374h-15.635v1.626h15.635v-1.626zM1.6 9.594v-0.714h-1.6v0.714h1.6zM4.634 22.657c-1.995-4.056-3.034-8.528-3.034-13.063h-1.6c0 4.788 1.096 9.509 3.203 13.791l1.43-0.729zM4.182 22.374c0.192 0 0.366 0.111 0.451 0.283l-1.43 0.729c0.092 0.184 0.232 0.339 0.405 0.447s0.372 0.166 0.575 0.167v-1.626zM19.366 22.657c0.043-0.084 0.107-0.156 0.187-0.205s0.171-0.077 0.264-0.078v1.626c0.416 0 0.794-0.237 0.979-0.615l-1.43-0.729zM22.4 9.594c0 4.534-1.040 9.007-3.034 13.063l1.43 0.729c2.106-4.282 3.203-9.004 3.203-13.791h-1.6zM22.875 9.363c-0.126 0-0.247-0.051-0.336-0.141s-0.139-0.213-0.139-0.342h1.6c0-0.303-0.118-0.594-0.329-0.808s-0.497-0.335-0.795-0.335v1.626zM1.125 7.737c-0.298 0-0.584 0.12-0.795 0.335s-0.329 0.505-0.329 0.808h1.6c0 0.128-0.050 0.251-0.139 0.342s-0.21 0.141-0.336 0.141v-1.626zM6.286 8.968l4.8-8.132-1.374-0.836-4.8 8.132 1.374 0.836zM12.914 0.836l4.8 8.132 1.373-0.836-4.8-8.132-1.373 0.836z"></path>
</symbol>
<symbol id="icon-scroll" viewBox="0 0 24 24">
<path d="M27 23.813l-25.351-19.014 2.701-3.598 22.649 16.986 22.649-16.986 2.701 3.598-25.351 19.014z"></path>
</symbol>
</defs>
</svg>
